<?xml version="1.0" encoding="UTF-8"?>
<svg xmlns="http://www.w3.org/2000/svg" viewBox="256 119 524 523">
  <path d="M514.50,641.01 C514.17,640.46 515.53,634.31 517.53,627.33 C528.28,589.83 544.44,558.05 566.75,530.50 C576.45,518.53 599.20,495.97 611.00,486.64 C643.89,460.63 685.59,441.46 727.50,433.09 C738.68,430.86 760.79,427.99 766.66,428.02 C773.50,428.04 773.61,428.41 770.52,441.14 C757.24,495.85 726.28,544.64 680.18,583.50 C650.34,608.65 607.51,629.06 567.61,637.13 C547.38,641.22 516.05,643.51 514.50,641.01 Z M457.66,636.48 C416.48,626.86 378.24,608.00 345.61,581.22 C341.45,577.80 337.78,573.98 337.47,572.73 C337.07,571.13 338.74,566.86 343.05,558.47 C358.60,528.24 361.39,525.37 394.50,505.52 C411.99,495.04 410.26,495.99 446.50,476.76 C489.26,454.07 502.69,446.80 514.00,440.22 C557.72,414.80 573.51,403.25 600.34,377.08 C625.32,352.72 640.45,329.97 649.11,303.77 C664.15,258.29 656.54,198.37 630.78,159.36 C623.83,148.83 607.41,130.03 599.49,123.55 C596.85,121.38 595.11,119.46 595.63,119.29 C597.21,118.76 622.42,129.53 634.59,135.92 C660.99,149.79 678.96,162.39 697.09,179.77 C722.26,203.88 742.86,233.82 757.66,267.81 C771.70,300.06 778.55,331.06 779.67,367.50 C780.11,381.60 779.95,384.83 778.71,386.46 C777.39,388.19 775.47,388.50 762.36,389.12 C737.89,390.26 716.81,393.80 692.17,400.90 C655.93,411.34 616.01,431.99 586.00,455.79 C566.88,470.96 541.53,497.91 527.48,518.00 C525.37,521.02 522.21,525.52 520.46,528.00 C510.53,542.06 495.69,570.52 487.86,590.50 C483.90,600.60 476.00,625.21 476.00,627.43 C476.00,628.10 475.31,630.97 474.46,633.82 C472.63,639.97 472.61,639.97 457.66,636.48 Z M298.22,533.29 C294.28,527.70 283.12,508.24 278.00,498.03 C250.19,442.49 241.98,374.05 256.06,315.00 C266.08,272.98 284.09,236.15 310.09,204.47 C318.24,194.55 349.46,163.00 351.12,163.00 C352.77,163.00 351.99,165.09 347.48,172.79 C334.81,194.39 325.94,226.64 321.98,265.50 C320.03,284.62 319.60,343.44 321.10,384.50 C321.87,405.40 322.48,437.80 322.45,456.50 C322.39,500.36 321.60,504.24 308.44,525.10 C301.33,536.36 300.73,536.84 298.22,533.29 Z M355.25,487.22 C354.01,486.27 352.57,483.98 352.04,482.13 C351.49,480.22 351.02,458.79 350.95,432.50 C350.81,381.54 350.79,381.71 356.97,378.52 C362.71,375.55 365.31,376.47 375.00,384.95 C383.93,392.76 393.36,400.02 400.46,404.54 C407.32,408.90 431.18,420.87 438.32,423.53 C444.93,425.99 449.00,429.96 449.00,433.95 C449.00,441.12 448.06,441.84 412.50,462.01 C405.35,466.06 393.70,472.92 386.61,477.24 C379.52,481.56 372.00,485.98 369.90,487.05 C365.16,489.47 358.27,489.55 355.25,487.22 Z M483.83,393.37 C473.68,389.16 475.30,372.50 486.09,370.10 C494.35,368.27 501.00,373.62 501.00,382.09 C501.00,386.30 500.52,387.53 497.75,390.43 C493.82,394.53 489.06,395.54 483.83,393.37 Z M538.30,377.04 C532.48,373.49 530.02,364.27 533.56,359.22 C538.43,352.26 550.98,352.19 554.54,359.09 C560.80,371.18 549.38,383.80 538.30,377.04 Z M448.68,372.52 C436.62,366.23 440.09,349.00 453.42,349.00 C463.24,349.00 468.57,357.90 464.54,367.57 C462.19,373.18 454.53,375.57 448.68,372.52 Z M503.00,356.80 C498.91,354.04 496.31,347.88 497.40,343.56 C497.78,342.01 499.36,339.48 500.90,337.95 C510.11,328.74 524.32,337.84 519.97,350.16 C517.22,357.93 509.28,361.04 503.00,356.80 Z M413.27,352.52 C404.71,348.80 403.61,335.76 411.41,330.65 C414.97,328.32 422.50,328.51 426.02,331.02 C433.36,336.24 431.76,349.11 423.33,352.64 C419.28,354.33 417.38,354.30 413.27,352.52 Z M561.33,342.91 C556.40,341.47 553.00,336.73 553.00,331.31 C553.00,327.36 553.51,326.25 556.88,322.88 C560.15,319.61 561.42,319.00 564.93,319.00 C570.15,319.00 574.25,321.07 575.81,324.47 C577.29,327.73 577.35,334.15 575.93,337.20 C573.66,342.09 567.18,344.63 561.33,342.91 Z M468.13,337.12 C464.30,335.08 462.00,330.56 462.00,325.11 C462.00,318.42 467.27,314.00 475.26,314.00 C487.36,314.00 490.02,331.97 478.72,337.33 C474.31,339.42 472.37,339.38 468.13,337.12 Z M376.29,331.37 C371.84,329.18 369.41,322.84 370.94,317.40 C372.89,310.43 376.12,308.00 383.42,308.00 C390.07,308.00 394.08,311.80 394.75,318.75 C395.81,329.80 386.30,336.31 376.29,331.37 Z M522.14,320.47 C515.71,315.05 515.77,305.66 522.27,301.27 C526.92,298.12 530.96,297.54 535.36,299.38 C541.14,301.79 543.91,310.93 540.65,316.81 C537.14,323.12 527.55,325.02 522.14,320.47 Z M431.76,316.25 C423.85,311.34 424.35,298.43 432.61,294.52 C445.72,288.30 456.99,304.31 447.01,314.99 C444.62,317.55 443.47,318.00 439.35,317.97 C436.57,317.96 433.33,317.22 431.76,316.25 Z M577.28,304.48 C573.91,301.11 573.78,300.70 574.22,295.31 C574.62,290.53 575.18,289.23 577.86,286.83 C580.44,284.53 581.96,284.00 586.00,284.00 C590.08,284.00 591.55,284.52 594.23,286.92 C597.25,289.62 597.50,290.30 597.50,296.00 C597.50,301.70 597.25,302.38 594.23,305.08 C591.53,307.50 590.09,308.00 585.88,308.00 C581.40,308.00 580.38,307.58 577.28,304.48 Z M486.55,299.91 C482.00,295.92 480.38,290.42 482.35,285.70 C485.20,278.88 493.10,275.53 499.36,278.50 C503.77,280.59 505.51,284.10 505.44,290.78 C505.39,295.78 505.07,296.55 501.71,299.63 C496.71,304.21 491.56,304.31 486.55,299.91 Z M397.42,297.03 C396.27,296.57 394.09,294.70 392.56,292.89 C390.13,290.00 389.84,288.97 390.26,284.61 C390.66,280.48 391.36,279.06 394.32,276.34 C398.76,272.28 401.55,271.53 406.91,272.98 C411.99,274.34 414.99,278.63 414.99,284.50 C414.99,293.76 405.70,300.38 397.42,297.03 Z M543.61,284.91 C535.15,278.26 536.86,266.18 546.71,262.93 C553.36,260.74 559.42,263.68 561.94,270.32 C563.00,273.13 562.70,276.21 560.88,281.06 C558.74,286.74 548.77,288.96 543.61,284.91 Z M452.98,281.17 C449.30,279.23 446.00,274.05 446.00,270.20 C446.00,264.73 451.54,258.55 457.44,257.45 C467.84,255.49 474.94,267.86 468.72,277.09 C464.70,283.05 459.25,284.46 452.98,281.17 Z M362.10,275.74 C357.80,273.52 355.49,269.34 355.57,263.87 C355.64,259.72 356.15,258.39 358.67,255.87 C364.02,250.52 373.46,250.96 378.03,256.77 C382.10,261.94 379.77,272.34 373.81,275.65 C370.86,277.28 365.19,277.33 362.10,275.74 Z M598.20,269.52 C594.32,266.25 592.61,259.88 594.44,255.49 C597.21,248.86 604.80,245.64 611.27,248.34 C615.70,250.19 618.00,254.36 618.00,260.55 C618.00,264.50 617.49,265.71 614.60,268.60 C611.64,271.56 610.56,272.00 606.18,272.00 C602.29,272.00 600.49,271.44 598.20,269.52 Z M509.50,266.05 C503.35,263.50 500.19,254.39 503.34,248.30 C505.27,244.57 510.43,242.00 516.00,242.00 C519.44,242.00 520.81,242.61 523.60,245.40 C526.41,248.21 527.00,249.54 527.00,253.09 C527.00,262.39 517.56,269.38 509.50,266.05 Z M418.50,261.05 C412.64,258.62 409.29,249.54 411.91,243.21 C415.10,235.51 428.52,233.98 433.46,240.75 C436.04,244.29 436.13,252.62 433.64,256.43 C430.70,260.91 423.49,263.11 418.50,261.05 Z M565.31,250.99 C560.54,249.07 557.43,240.90 559.30,235.21 C561.47,228.62 572.31,224.73 577.78,228.56 C582.69,232.00 584.48,240.25 581.54,245.91 C579.02,250.79 571.02,253.29 565.31,250.99 Z M476.67,245.93 C470.88,244.96 467.77,241.26 467.23,234.71 C466.70,228.36 467.87,225.66 472.31,222.95 C476.13,220.63 481.03,220.45 484.99,222.49 C489.48,224.82 491.00,227.77 491.00,234.15 C491.00,239.13 490.63,240.22 488.05,242.80 C484.69,246.15 482.14,246.86 476.67,245.93 Z M382.61,240.56 C379.07,239.00 375.01,232.56 375.01,228.50 C375.01,221.98 381.37,215.96 388.20,216.04 C395.12,216.11 399.98,221.47 399.99,229.03 C400.00,234.62 396.22,239.29 390.38,240.91 C385.85,242.17 386.30,242.19 382.61,240.56 Z M529.30,229.04 C520.02,223.38 521.54,210.42 531.88,207.12 C538.50,205.01 543.23,206.77 545.92,212.33 C548.43,217.51 548.52,220.10 546.37,224.64 C543.44,230.82 535.54,232.85 529.30,229.04 Z M437.30,224.04 C428.94,218.95 428.97,207.27 437.34,202.10 C446.66,196.34 457.26,203.34 455.58,214.14 C454.80,219.15 452.71,222.06 448.24,224.38 C444.11,226.51 441.20,226.42 437.30,224.04 Z M582.98,212.10 C578.71,207.61 577.64,203.77 579.46,199.50 C581.60,194.48 585.37,191.77 590.94,191.23 C595.62,190.78 596.18,190.98 599.48,194.28 C602.50,197.30 603.00,198.46 603.00,202.45 C603.00,210.97 598.32,216.00 590.39,216.00 C587.39,216.00 585.99,215.26 582.98,212.10 Z M492.98,209.15 C488.87,206.96 486.41,200.94 487.43,195.54 C488.13,191.77 493.47,186.42 497.56,185.40 C500.98,184.54 508.45,187.51 510.42,190.52 C512.32,193.42 512.45,201.56 510.65,204.81 C507.41,210.65 499.47,212.60 492.98,209.15 Z M400.14,203.47 C394.44,198.67 393.61,189.30 398.45,184.46 C406.54,176.37 420.00,181.60 420.00,192.82 C420.00,197.93 417.05,203.20 413.22,204.95 C409.04,206.85 403.41,206.22 400.14,203.47 Z M551.97,195.23 C546.11,192.44 544.00,188.98 544.00,182.17 C544.00,177.74 544.38,176.87 547.53,174.10 C553.30,169.04 562.79,169.99 566.33,175.99 C568.22,179.19 568.52,185.78 566.93,189.20 C564.72,193.96 556.36,197.32 551.97,195.23 Z M457.31,188.05 C455.56,186.98 453.63,185.18 453.03,184.05 C451.53,181.26 451.48,173.83 452.94,171.11 C454.78,167.68 459.98,165.01 464.85,165.00 C468.45,165.00 469.78,165.58 472.54,168.34 C476.73,172.53 477.57,175.80 475.85,181.20 C473.36,189.03 464.37,192.35 457.31,188.05 Z M515.42,174.08 C511.33,172.33 508.00,167.16 508.00,162.57 C508.00,153.75 515.54,147.72 523.78,149.94 C529.18,151.40 532.00,155.82 532.00,162.85 C532.00,169.85 528.43,174.02 521.97,174.59 C519.51,174.80 516.56,174.58 515.42,174.08 Z M421.89,168.56 C417.89,166.30 416.00,162.64 416.00,157.17 C416.00,146.68 426.66,140.61 435.10,146.29 C441.54,150.62 442.52,160.15 437.14,166.17 C434.91,168.66 433.43,169.33 429.44,169.65 C426.28,169.89 423.56,169.50 421.89,168.56 Z M478.61,153.08 C470.81,147.94 469.79,138.33 476.39,132.28 C479.25,129.66 480.82,129.00 484.17,129.00 C498.13,129.00 502.19,148.26 489.36,153.62 C484.89,155.49 482.04,155.35 478.61,153.08 Z" fill="currentColor" fill-rule="evenodd"/>
</svg>
